<svg id="Layer_1" data-name="Layer 1" xmlns="http://www.w3.org/2000/svg" viewBox="0 0 488.5 764.5"><defs><style>.cls-1{fill:none;stroke:#fff;stroke-miterlimit:10;}</style></defs><title>Untitled-2</title><polygon class="cls-1" points="488 205.5 366 87.5 366 0.5 244 0.5 244 1 112.5 1 92.5 17 98.5 97 0.5 198 0.5 559 122.5 677 122.5 764 244.5 764 244.5 763.5 376 763.5 396 747.5 390 667.5 488 566.5 488 205.5"/><rect x="132" y="31.5" width="10" height="157"/><rect x="308" y="19.5" width="13" height="158"/><polygon points="180 199.5 180 188.5 213 188.5 213 199.5 244 199.5 254 188.5 285 188.5 285 228.5 249 271.5 216 271.5 180 238.5 180 199.5"/><polygon points="363 235.5 375 247.5 429 217.5 429 198.5 405 181.5 381 181.5 363 235.5"/><polygon points="81 198.5 67 198.5 46 214.5 46 229.5 95 258.5 106 247.5 81 198.5"/><rect x="232" y="311.5" width="22" height="138"/><polygon points="321 278.5 330 285.5 302 319.5 293 311.5 321 278.5"/><rect x="275" y="328.5" width="10" height="105"/><polygon points="204 583.5 221 583.5 234 570.5 266 570.5 279.5 584 300 584 310.75 573.25 310.75 524.5 271.88 485.63 223 485.63 189 523.5 189 569.5 204 583.5"/></svg>